<svg width="271" height="501" viewBox="0 0 271 501" fill="none" xmlns="http://www.w3.org/2000/svg">
<path d="M230 197H38L63 282H202L230 197Z" fill="white"/>
<path d="M95 153V165H169V153H95Z" fill="white"/>
<path d="M38 197L69 127H209L230 197M38 197H230M38 197L63 282H202L230 197M95 153V165H169V153H95Z" stroke="white"/>
<path d="M112 140V59H156V140H112Z" fill="#E9E1E1"/>
<path d="M123 80.9375V121.438M112 59V140H156V59H112Z" stroke="#E35454"/>
<path d="M134 74V94" stroke="black"/>
<path d="M116 38V56" stroke="#F9F9F9"/>
<path d="M128 38V56" stroke="#F9F9F9"/>
<path d="M140 38V56M152 38V56" stroke="#F9F9F9"/>
<path d="M116 14V29" stroke="#F9F9F9"/>
<path d="M128 14V29" stroke="#F9F9F9"/>
<path d="M140 14V29M152 14V29" stroke="#F9F9F9"/>
<path d="M116 0V5" stroke="#F9F9F9"/>
<path d="M128 0V5" stroke="#F9F9F9"/>
<path d="M140 0V5M152 0V5" stroke="#F9F9F9"/>
<path d="M144 69V99" stroke="#8EB2F9"/>
<g filter="url(#filter0_d)">
<path d="M8.03938 410.68C12.8394 409.72 17.1914 409.24 21.0954 409.24C28.5194 409.24 34.2154 410.872 38.1834 414.136C42.2154 417.336 44.2314 422.008 44.2314 428.152C44.2314 432.632 42.8874 436.76 40.1994 440.536C37.5754 444.248 34.1514 447.576 29.9274 450.52C33.4474 452.376 35.9754 454.36 37.5114 456.472C39.1114 458.584 39.9114 460.984 39.9114 463.672C39.9114 465.848 39.3994 467.736 38.3754 469.336C37.4154 470.936 36.0714 472.28 34.3434 473.368C32.6794 474.392 30.6954 475.16 28.3914 475.672C26.1514 476.184 23.7194 476.44 21.0954 476.44C17.3834 476.44 13.5754 475.96 9.67138 475L8.03938 410.68ZM20.9994 413.368C19.5274 413.368 17.9914 413.464 16.3914 413.656L15.5274 454.072C18.1514 452.728 20.6794 451.16 23.1114 449.368C25.5434 447.576 27.6874 445.592 29.5434 443.416C31.4634 441.24 32.9674 438.872 34.0554 436.312C35.2074 433.752 35.7834 431.064 35.7834 428.248C35.7834 423.448 34.5994 419.768 32.2314 417.208C29.8634 414.648 26.1194 413.368 20.9994 413.368ZM31.4634 463.576C31.4634 461.528 31.0474 459.608 30.2154 457.816C29.4474 456.024 28.1034 454.392 26.1834 452.92C22.7914 454.968 19.2074 456.76 15.4314 458.296L15.1434 471.736C17.2554 472.312 19.3034 472.6 21.2874 472.6C24.2314 472.6 26.6634 471.864 28.5834 470.392C30.5034 468.92 31.4634 466.648 31.4634 463.576ZM86.1901 475C86.1901 472.312 86.1581 469.72 86.0941 467.224C86.0301 464.664 85.9341 462.136 85.8061 459.64H62.6701C62.5421 462.136 62.4461 464.664 62.3821 467.224C62.3181 469.72 62.2861 472.312 62.2861 475H53.8381C53.9021 466.168 54.4461 457.784 55.4701 449.848C56.5581 441.848 57.9981 434.84 59.7901 428.824C61.6461 422.808 63.7901 418.04 66.2221 414.52C68.7181 411 71.3741 409.24 74.1901 409.24C77.0701 409.24 79.7261 411 82.1581 414.52C84.5901 418.04 86.7021 422.808 88.4941 428.824C90.3501 434.84 91.7901 441.848 92.8141 449.848C93.9021 457.784 94.4781 466.168 94.5421 475H86.1901ZM74.1901 413.08C72.8461 413.08 71.5661 414.168 70.3501 416.344C69.1341 418.456 68.0461 421.4 67.0861 425.176C66.1261 428.952 65.2941 433.432 64.5901 438.616C63.8861 443.736 63.3421 449.304 62.9581 455.32H85.5181C85.1341 449.304 84.5581 443.736 83.7901 438.616C83.0861 433.432 82.2221 428.952 81.1981 425.176C80.2381 421.4 79.1501 418.456 77.9341 416.344C76.7821 414.168 75.5341 413.08 74.1901 413.08ZM109.609 410.68H114.985L116.329 470.104L136.105 468.184V475H107.977L109.609 410.68ZM147.296 410.68H152.672L154.016 470.104L173.792 468.184V475H145.664L147.296 410.68ZM197.003 472.6C198.731 472.6 200.331 471.416 201.803 469.048C203.275 466.68 204.523 463.544 205.547 459.64C206.635 455.672 207.467 451.192 208.043 446.2C208.683 441.144 209.003 435.96 209.003 430.648C209.003 426.744 208.683 423.64 208.043 421.336C207.403 419.032 206.539 417.272 205.451 416.056C204.363 414.84 203.083 414.04 201.611 413.656C200.203 413.272 198.667 413.08 197.003 413.08C195.403 413.08 193.867 413.272 192.395 413.656C190.987 414.04 189.739 414.84 188.651 416.056C187.563 417.272 186.699 419.032 186.059 421.336C185.419 423.64 185.099 426.744 185.099 430.648C185.099 435.96 185.387 441.144 185.963 446.2C186.603 451.192 187.435 455.672 188.459 459.64C189.547 463.544 190.795 466.68 192.203 469.048C193.675 471.416 195.275 472.6 197.003 472.6ZM197.003 476.44C194.187 476.44 191.531 475.128 189.035 472.504C186.539 469.88 184.363 466.424 182.507 462.136C180.715 457.848 179.275 452.984 178.187 447.544C177.163 442.04 176.651 436.408 176.651 430.648C176.651 425.976 177.195 422.232 178.283 419.416C179.371 416.6 180.843 414.456 182.699 412.984C184.555 411.448 186.699 410.456 189.131 410.008C191.627 409.496 194.251 409.24 197.003 409.24C199.819 409.24 202.443 409.496 204.875 410.008C207.371 410.456 209.547 411.448 211.403 412.984C213.259 414.456 214.699 416.6 215.723 419.416C216.811 422.232 217.355 425.976 217.355 430.648C217.355 436.408 216.811 442.04 215.723 447.544C214.699 452.984 213.259 457.848 211.403 462.136C209.611 466.424 207.467 469.88 204.971 472.504C202.539 475.128 199.883 476.44 197.003 476.44ZM241.061 415.864L224.069 415.288V410.68H263.717V416.536L246.725 416.056L248.069 475H239.621L241.061 415.864Z" fill="#F2CBCB"/>
<path d="M8.03938 410.68C12.8394 409.72 17.1914 409.24 21.0954 409.24C28.5194 409.24 34.2154 410.872 38.1834 414.136C42.2154 417.336 44.2314 422.008 44.2314 428.152C44.2314 432.632 42.8874 436.76 40.1994 440.536C37.5754 444.248 34.1514 447.576 29.9274 450.52C33.4474 452.376 35.9754 454.36 37.5114 456.472C39.1114 458.584 39.9114 460.984 39.9114 463.672C39.9114 465.848 39.3994 467.736 38.3754 469.336C37.4154 470.936 36.0714 472.28 34.3434 473.368C32.6794 474.392 30.6954 475.16 28.3914 475.672C26.1514 476.184 23.7194 476.44 21.0954 476.44C17.3834 476.44 13.5754 475.96 9.67138 475L8.03938 410.68ZM20.9994 413.368C19.5274 413.368 17.9914 413.464 16.3914 413.656L15.5274 454.072C18.1514 452.728 20.6794 451.16 23.1114 449.368C25.5434 447.576 27.6874 445.592 29.5434 443.416C31.4634 441.24 32.9674 438.872 34.0554 436.312C35.2074 433.752 35.7834 431.064 35.7834 428.248C35.7834 423.448 34.5994 419.768 32.2314 417.208C29.8634 414.648 26.1194 413.368 20.9994 413.368ZM31.4634 463.576C31.4634 461.528 31.0474 459.608 30.2154 457.816C29.4474 456.024 28.1034 454.392 26.1834 452.92C22.7914 454.968 19.2074 456.76 15.4314 458.296L15.1434 471.736C17.2554 472.312 19.3034 472.6 21.2874 472.6C24.2314 472.6 26.6634 471.864 28.5834 470.392C30.5034 468.92 31.4634 466.648 31.4634 463.576ZM86.1901 475C86.1901 472.312 86.1581 469.72 86.0941 467.224C86.0301 464.664 85.9341 462.136 85.8061 459.64H62.6701C62.5421 462.136 62.4461 464.664 62.3821 467.224C62.3181 469.72 62.2861 472.312 62.2861 475H53.8381C53.9021 466.168 54.4461 457.784 55.4701 449.848C56.5581 441.848 57.9981 434.84 59.7901 428.824C61.6461 422.808 63.7901 418.04 66.2221 414.52C68.7181 411 71.3741 409.24 74.1901 409.24C77.0701 409.24 79.7261 411 82.1581 414.52C84.5901 418.04 86.7021 422.808 88.4941 428.824C90.3501 434.84 91.7901 441.848 92.8141 449.848C93.9021 457.784 94.4781 466.168 94.5421 475H86.1901ZM74.1901 413.08C72.8461 413.08 71.5661 414.168 70.3501 416.344C69.1341 418.456 68.0461 421.4 67.0861 425.176C66.1261 428.952 65.2941 433.432 64.5901 438.616C63.8861 443.736 63.3421 449.304 62.9581 455.32H85.5181C85.1341 449.304 84.5581 443.736 83.7901 438.616C83.0861 433.432 82.2221 428.952 81.1981 425.176C80.2381 421.4 79.1501 418.456 77.9341 416.344C76.7821 414.168 75.5341 413.08 74.1901 413.08ZM109.609 410.68H114.985L116.329 470.104L136.105 468.184V475H107.977L109.609 410.68ZM147.296 410.68H152.672L154.016 470.104L173.792 468.184V475H145.664L147.296 410.68ZM197.003 472.6C198.731 472.6 200.331 471.416 201.803 469.048C203.275 466.68 204.523 463.544 205.547 459.64C206.635 455.672 207.467 451.192 208.043 446.2C208.683 441.144 209.003 435.96 209.003 430.648C209.003 426.744 208.683 423.64 208.043 421.336C207.403 419.032 206.539 417.272 205.451 416.056C204.363 414.84 203.083 414.04 201.611 413.656C200.203 413.272 198.667 413.08 197.003 413.08C195.403 413.08 193.867 413.272 192.395 413.656C190.987 414.04 189.739 414.84 188.651 416.056C187.563 417.272 186.699 419.032 186.059 421.336C185.419 423.64 185.099 426.744 185.099 430.648C185.099 435.96 185.387 441.144 185.963 446.2C186.603 451.192 187.435 455.672 188.459 459.64C189.547 463.544 190.795 466.68 192.203 469.048C193.675 471.416 195.275 472.6 197.003 472.6ZM197.003 476.44C194.187 476.44 191.531 475.128 189.035 472.504C186.539 469.88 184.363 466.424 182.507 462.136C180.715 457.848 179.275 452.984 178.187 447.544C177.163 442.04 176.651 436.408 176.651 430.648C176.651 425.976 177.195 422.232 178.283 419.416C179.371 416.6 180.843 414.456 182.699 412.984C184.555 411.448 186.699 410.456 189.131 410.008C191.627 409.496 194.251 409.24 197.003 409.24C199.819 409.24 202.443 409.496 204.875 410.008C207.371 410.456 209.547 411.448 211.403 412.984C213.259 414.456 214.699 416.6 215.723 419.416C216.811 422.232 217.355 425.976 217.355 430.648C217.355 436.408 216.811 442.04 215.723 447.544C214.699 452.984 213.259 457.848 211.403 462.136C209.611 466.424 207.467 469.88 204.971 472.504C202.539 475.128 199.883 476.44 197.003 476.44ZM241.061 415.864L224.069 415.288V410.68H263.717V416.536L246.725 416.056L248.069 475H239.621L241.061 415.864Z" fill="url(#paint0_linear)"/>
<path d="M8.03938 410.68C12.8394 409.72 17.1914 409.24 21.0954 409.24C28.5194 409.24 34.2154 410.872 38.1834 414.136C42.2154 417.336 44.2314 422.008 44.2314 428.152C44.2314 432.632 42.8874 436.76 40.1994 440.536C37.5754 444.248 34.1514 447.576 29.9274 450.52C33.4474 452.376 35.9754 454.36 37.5114 456.472C39.1114 458.584 39.9114 460.984 39.9114 463.672C39.9114 465.848 39.3994 467.736 38.3754 469.336C37.4154 470.936 36.0714 472.28 34.3434 473.368C32.6794 474.392 30.6954 475.16 28.3914 475.672C26.1514 476.184 23.7194 476.44 21.0954 476.44C17.3834 476.44 13.5754 475.96 9.67138 475L8.03938 410.68ZM20.9994 413.368C19.5274 413.368 17.9914 413.464 16.3914 413.656L15.5274 454.072C18.1514 452.728 20.6794 451.16 23.1114 449.368C25.5434 447.576 27.6874 445.592 29.5434 443.416C31.4634 441.24 32.9674 438.872 34.0554 436.312C35.2074 433.752 35.7834 431.064 35.7834 428.248C35.7834 423.448 34.5994 419.768 32.2314 417.208C29.8634 414.648 26.1194 413.368 20.9994 413.368ZM31.4634 463.576C31.4634 461.528 31.0474 459.608 30.2154 457.816C29.4474 456.024 28.1034 454.392 26.1834 452.92C22.7914 454.968 19.2074 456.76 15.4314 458.296L15.1434 471.736C17.2554 472.312 19.3034 472.6 21.2874 472.6C24.2314 472.6 26.6634 471.864 28.5834 470.392C30.5034 468.92 31.4634 466.648 31.4634 463.576ZM86.1901 475C86.1901 472.312 86.1581 469.72 86.0941 467.224C86.0301 464.664 85.9341 462.136 85.8061 459.64H62.6701C62.5421 462.136 62.4461 464.664 62.3821 467.224C62.3181 469.72 62.2861 472.312 62.2861 475H53.8381C53.9021 466.168 54.4461 457.784 55.4701 449.848C56.5581 441.848 57.9981 434.84 59.7901 428.824C61.6461 422.808 63.7901 418.04 66.2221 414.52C68.7181 411 71.3741 409.24 74.1901 409.24C77.0701 409.24 79.7261 411 82.1581 414.52C84.5901 418.04 86.7021 422.808 88.4941 428.824C90.3501 434.84 91.7901 441.848 92.8141 449.848C93.9021 457.784 94.4781 466.168 94.5421 475H86.1901ZM74.1901 413.08C72.8461 413.08 71.5661 414.168 70.3501 416.344C69.1341 418.456 68.0461 421.4 67.0861 425.176C66.1261 428.952 65.2941 433.432 64.5901 438.616C63.8861 443.736 63.3421 449.304 62.9581 455.32H85.5181C85.1341 449.304 84.5581 443.736 83.7901 438.616C83.0861 433.432 82.2221 428.952 81.1981 425.176C80.2381 421.4 79.1501 418.456 77.9341 416.344C76.7821 414.168 75.5341 413.08 74.1901 413.08ZM109.609 410.68H114.985L116.329 470.104L136.105 468.184V475H107.977L109.609 410.68ZM147.296 410.68H152.672L154.016 470.104L173.792 468.184V475H145.664L147.296 410.68ZM197.003 472.6C198.731 472.6 200.331 471.416 201.803 469.048C203.275 466.68 204.523 463.544 205.547 459.64C206.635 455.672 207.467 451.192 208.043 446.2C208.683 441.144 209.003 435.96 209.003 430.648C209.003 426.744 208.683 423.64 208.043 421.336C207.403 419.032 206.539 417.272 205.451 416.056C204.363 414.84 203.083 414.04 201.611 413.656C200.203 413.272 198.667 413.08 197.003 413.08C195.403 413.08 193.867 413.272 192.395 413.656C190.987 414.04 189.739 414.84 188.651 416.056C187.563 417.272 186.699 419.032 186.059 421.336C185.419 423.64 185.099 426.744 185.099 430.648C185.099 435.96 185.387 441.144 185.963 446.2C186.603 451.192 187.435 455.672 188.459 459.64C189.547 463.544 190.795 466.68 192.203 469.048C193.675 471.416 195.275 472.6 197.003 472.6ZM197.003 476.44C194.187 476.44 191.531 475.128 189.035 472.504C186.539 469.88 184.363 466.424 182.507 462.136C180.715 457.848 179.275 452.984 178.187 447.544C177.163 442.04 176.651 436.408 176.651 430.648C176.651 425.976 177.195 422.232 178.283 419.416C179.371 416.6 180.843 414.456 182.699 412.984C184.555 411.448 186.699 410.456 189.131 410.008C191.627 409.496 194.251 409.24 197.003 409.24C199.819 409.24 202.443 409.496 204.875 410.008C207.371 410.456 209.547 411.448 211.403 412.984C213.259 414.456 214.699 416.6 215.723 419.416C216.811 422.232 217.355 425.976 217.355 430.648C217.355 436.408 216.811 442.04 215.723 447.544C214.699 452.984 213.259 457.848 211.403 462.136C209.611 466.424 207.467 469.88 204.971 472.504C202.539 475.128 199.883 476.44 197.003 476.44ZM241.061 415.864L224.069 415.288V410.68H263.717V416.536L246.725 416.056L248.069 475H239.621L241.061 415.864Z" fill="url(#paint1_linear)"/>
<path d="M8.03938 410.68L7.45103 407.738L4.97633 408.233L5.04034 410.756L8.03938 410.68ZM38.1834 414.136L36.2776 416.453L36.2978 416.47L36.3184 416.486L38.1834 414.136ZM40.1994 440.536L37.7554 438.796L37.7496 438.804L40.1994 440.536ZM29.9274 450.52L28.212 448.059L24.1702 450.876L28.5281 453.174L29.9274 450.52ZM37.5114 456.472L35.0852 458.237L35.1024 458.26L35.1201 458.284L37.5114 456.472ZM38.3754 469.336L35.8486 467.719L35.8252 467.755L35.8029 467.793L38.3754 469.336ZM34.3434 473.368L35.9157 475.923L35.9288 475.915L35.9418 475.907L34.3434 473.368ZM28.3914 475.672L27.7406 472.743L27.7317 472.745L27.7229 472.747L28.3914 475.672ZM9.67138 475L6.67234 475.076L6.73045 477.366L8.95501 477.913L9.67138 475ZM16.3914 413.656L16.0339 410.677L13.4477 410.988L13.3921 413.592L16.3914 413.656ZM15.5274 454.072L12.5281 454.008L12.4206 459.034L16.895 456.742L15.5274 454.072ZM23.1114 449.368L21.3318 446.953L21.3318 446.953L23.1114 449.368ZM29.5434 443.416L27.2939 441.431L27.2772 441.45L27.2609 441.469L29.5434 443.416ZM34.0554 436.312L31.3196 435.081L31.3067 435.11L31.2944 435.139L34.0554 436.312ZM32.2314 417.208L34.4337 415.171L34.4337 415.171L32.2314 417.208ZM30.2154 457.816L27.4579 458.998L27.4755 459.039L27.4943 459.079L30.2154 457.816ZM26.1834 452.92L28.0087 450.539L26.3846 449.294L24.6328 450.352L26.1834 452.92ZM15.4314 458.296L14.301 455.517L12.4743 456.26L12.4321 458.232L15.4314 458.296ZM15.1434 471.736L12.1441 471.672L12.0939 474.014L14.354 474.63L15.1434 471.736ZM28.5834 470.392L30.4087 472.773L30.4087 472.773L28.5834 470.392ZM8.62773 413.622C13.2804 412.691 17.4312 412.24 21.0954 412.24V406.24C16.9515 406.24 12.3983 406.749 7.45103 407.738L8.62773 413.622ZM21.0954 412.24C28.1259 412.24 33.0407 413.79 36.2776 416.453L40.0892 411.819C35.3901 407.954 28.9129 406.24 21.0954 406.24V412.24ZM36.3184 416.486C39.4917 419.004 41.2314 422.726 41.2314 428.152H47.2314C47.2314 421.29 44.9391 415.668 40.0483 411.786L36.3184 416.486ZM41.2314 428.152C41.2314 431.986 40.0951 435.509 37.7554 438.796L42.6434 442.276C45.6797 438.01 47.2314 433.278 47.2314 428.152H41.2314ZM37.7496 438.804C35.3511 442.197 32.1882 445.288 28.212 448.059L31.6428 452.981C36.1145 449.864 39.7997 446.299 42.6491 442.268L37.7496 438.804ZM28.5281 453.174C31.8355 454.918 33.9233 456.639 35.0852 458.237L39.9376 454.707C38.0274 452.081 35.0592 449.834 31.3266 447.866L28.5281 453.174ZM35.1201 458.284C36.319 459.866 36.9114 461.628 36.9114 463.672H42.9114C42.9114 460.34 41.9038 457.302 39.9027 454.66L35.1201 458.284ZM36.9114 463.672C36.9114 465.36 36.5205 466.669 35.8486 467.719L40.9022 470.953C42.2782 468.803 42.9114 466.336 42.9114 463.672H36.9114ZM35.8029 467.793C35.1073 468.952 34.1129 469.968 32.7449 470.829L35.9418 475.907C38.0298 474.592 39.7235 472.92 40.9479 470.879L35.8029 467.793ZM32.7711 470.813C31.4434 471.63 29.7844 472.289 27.7406 472.743L29.0422 478.601C31.6064 478.031 33.9153 477.154 35.9157 475.923L32.7711 470.813ZM27.7229 472.747C25.7306 473.203 23.5255 473.44 21.0954 473.44V479.44C23.9132 479.44 26.5722 479.165 29.0599 478.597L27.7229 472.747ZM21.0954 473.44C17.6439 473.44 14.0766 472.994 10.3877 472.087L8.95501 477.913C13.0742 478.926 17.1229 479.44 21.0954 479.44V473.44ZM12.6704 474.924L11.0384 410.604L5.04034 410.756L6.67234 475.076L12.6704 474.924ZM20.9994 410.368C19.3973 410.368 17.7416 410.472 16.0339 410.677L16.7488 416.635C18.2412 416.456 19.6574 416.368 20.9994 416.368V410.368ZM13.3921 413.592L12.5281 454.008L18.5267 454.136L19.3907 413.72L13.3921 413.592ZM16.895 456.742C19.6665 455.323 22.332 453.669 24.891 451.783L21.3318 446.953C19.0268 448.651 16.6363 450.133 14.1597 451.402L16.895 456.742ZM24.891 451.783C27.4976 449.862 29.8126 447.723 31.8259 445.363L27.2609 441.469C25.5621 443.461 23.5891 445.29 21.3318 446.953L24.891 451.783ZM31.7929 445.401C33.9165 442.994 35.5971 440.354 36.8164 437.485L31.2944 435.139C30.3376 437.39 29.0102 439.486 27.2939 441.431L31.7929 445.401ZM36.7911 437.543C38.1179 434.595 38.7834 431.487 38.7834 428.248H32.7834C32.7834 430.641 32.2969 432.909 31.3196 435.081L36.7911 437.543ZM38.7834 428.248C38.7834 422.98 37.4808 418.465 34.4337 415.171L30.0291 419.245C31.7179 421.071 32.7834 423.916 32.7834 428.248H38.7834ZM34.4337 415.171C31.276 411.757 26.5606 410.368 20.9994 410.368V416.368C25.6782 416.368 28.4507 417.539 30.0291 419.245L34.4337 415.171ZM34.4634 463.576C34.4634 461.108 33.959 458.755 32.9364 456.553L27.4943 459.079C28.1358 460.461 28.4634 461.948 28.4634 463.576H34.4634ZM32.9728 456.634C31.9588 454.268 30.2399 452.25 28.0087 450.539L24.3581 455.301C25.9669 456.534 26.936 457.78 27.4579 458.998L32.9728 456.634ZM24.6328 450.352C21.3789 452.316 17.9358 454.039 14.301 455.517L16.5618 461.075C20.479 459.481 24.2038 457.62 27.734 455.488L24.6328 450.352ZM12.4321 458.232L12.1441 471.672L18.1427 471.8L18.4307 458.36L12.4321 458.232ZM14.354 474.63C16.697 475.269 19.0108 475.6 21.2874 475.6V469.6C19.5959 469.6 17.8137 469.355 15.9327 468.842L14.354 474.63ZM21.2874 475.6C24.7444 475.6 27.8592 474.727 30.4087 472.773L26.7581 468.011C25.4676 469.001 23.7183 469.6 21.2874 469.6V475.6ZM30.4087 472.773C33.2641 470.584 34.4634 467.304 34.4634 463.576H28.4634C28.4634 465.992 27.7426 467.256 26.7581 468.011L30.4087 472.773ZM86.1901 475H83.1901V478H86.1901V475ZM86.0941 467.224L83.0951 467.299L83.0951 467.301L86.0941 467.224ZM85.8061 459.64L88.8022 459.486L88.6562 456.64H85.8061V459.64ZM62.6701 459.64V456.64H59.82L59.6741 459.486L62.6701 459.64ZM62.3821 467.224L65.3811 467.301L65.3812 467.299L62.3821 467.224ZM62.2861 475V478H65.2861V475H62.2861ZM53.8381 475L50.8382 474.978L50.8163 478H53.8381V475ZM55.4701 449.848L52.4975 449.444L52.4961 449.454L52.4948 449.464L55.4701 449.848ZM59.7901 428.824L56.9234 427.94L56.9191 427.954L56.915 427.968L59.7901 428.824ZM66.2221 414.52L63.7749 412.785L63.7643 412.8L63.7539 412.815L66.2221 414.52ZM82.1581 414.52L84.6263 412.815L84.6263 412.815L82.1581 414.52ZM88.4941 428.824L85.619 429.68L85.6231 429.694L85.6275 429.708L88.4941 428.824ZM92.8141 449.848L89.8384 450.229L89.8401 450.242L89.8419 450.255L92.8141 449.848ZM94.5421 475V478H97.5639L97.542 474.978L94.5421 475ZM70.3501 416.344L72.95 417.841L72.9596 417.824L72.969 417.807L70.3501 416.344ZM67.0861 425.176L64.1786 424.437L64.1786 424.437L67.0861 425.176ZM64.5901 438.616L67.5622 439.025L67.5628 439.02L64.5901 438.616ZM62.9581 455.32L59.9642 455.129L59.7605 458.32H62.9581V455.32ZM85.5181 455.32V458.32H88.7157L88.512 455.129L85.5181 455.32ZM83.7901 438.616L80.8174 439.02L80.8202 439.04L80.8233 439.061L83.7901 438.616ZM81.1981 425.176L78.2906 425.915L78.2965 425.938L78.3027 425.961L81.1981 425.176ZM77.9341 416.344L75.2828 417.748L75.3077 417.795L75.3343 417.841L77.9341 416.344ZM89.1901 475C89.1901 472.288 89.1578 469.671 89.0931 467.147L83.0951 467.301C83.1584 469.769 83.1901 472.336 83.1901 475H89.1901ZM89.0932 467.149C89.0285 464.563 88.9316 462.009 88.8022 459.486L82.8101 459.794C82.9367 462.263 83.0317 464.765 83.0951 467.299L89.0932 467.149ZM85.8061 456.64H62.6701V462.64H85.8061V456.64ZM59.6741 459.486C59.5447 462.009 59.4477 464.563 59.3831 467.149L65.3812 467.299C65.4445 464.765 65.5396 462.263 65.6662 459.794L59.6741 459.486ZM59.3831 467.147C59.3184 469.671 59.2861 472.288 59.2861 475H65.2861C65.2861 472.336 65.3178 469.769 65.3811 467.301L59.3831 467.147ZM62.2861 472H53.8381V478H62.2861V472ZM56.838 475.022C56.9013 466.299 57.4385 458.036 58.4455 450.232L52.4948 449.464C51.4538 457.532 50.903 466.037 50.8382 474.978L56.838 475.022ZM58.4428 450.252C59.5155 442.364 60.9278 435.514 62.6653 429.68L56.915 427.968C55.0685 434.166 53.6007 441.332 52.4975 449.444L58.4428 450.252ZM62.6568 429.708C64.461 423.86 66.4933 419.405 68.6903 416.225L63.7539 412.815C61.087 416.675 58.8313 421.756 56.9234 427.94L62.6568 429.708ZM68.6693 416.255C70.9136 413.09 72.782 412.24 74.1901 412.24V406.24C69.9663 406.24 66.5227 408.91 63.7749 412.785L68.6693 416.255ZM74.1901 412.24C75.6691 412.24 77.5309 413.1 79.6899 416.225L84.6263 412.815C81.9214 408.9 78.4712 406.24 74.1901 406.24V412.24ZM79.6899 416.225C81.8798 419.395 83.8791 423.839 85.619 429.68L91.3693 427.968C89.5252 421.777 87.3005 416.685 84.6263 412.815L79.6899 416.225ZM85.6275 429.708C87.4209 435.522 88.8305 442.355 89.8384 450.229L95.7898 449.467C94.7498 441.341 93.2793 434.158 91.3608 427.94L85.6275 429.708ZM89.8419 450.255C90.9107 458.051 91.479 466.306 91.5422 475.022L97.542 474.978C97.4772 466.03 96.8935 457.517 95.7863 449.441L89.8419 450.255ZM94.5421 472H86.1901V478H94.5421V472ZM74.1901 410.08C71.0761 410.08 69.0279 412.56 67.7313 414.881L72.969 417.807C73.4788 416.895 73.8957 416.411 74.1651 416.182C74.4025 415.98 74.3942 416.08 74.1901 416.08V410.08ZM67.7503 414.847C66.3411 417.295 65.171 420.534 64.1786 424.437L69.9936 425.915C70.9213 422.266 71.9271 419.617 72.95 417.841L67.7503 414.847ZM64.1786 424.437C63.1829 428.353 62.3319 432.951 61.6174 438.212L67.5628 439.02C68.2563 433.913 69.0694 429.551 69.9936 425.915L64.1786 424.437ZM61.6181 438.207C60.9027 443.41 60.3521 449.052 59.9642 455.129L65.952 455.511C66.3321 449.556 66.8696 444.062 67.5622 439.025L61.6181 438.207ZM62.9581 458.32H85.5181V452.32H62.9581V458.32ZM88.512 455.129C88.1235 449.041 87.5394 443.388 86.7569 438.171L80.8233 439.061C81.5768 444.084 82.1448 449.567 82.5242 455.511L88.512 455.129ZM86.7628 438.212C86.0468 432.94 85.1607 428.326 84.0935 424.391L78.3027 425.961C79.2836 429.578 80.1255 433.924 80.8174 439.02L86.7628 438.212ZM84.1056 424.437C83.1133 420.534 81.9431 417.295 80.534 414.847L75.3343 417.841C76.3571 419.617 77.363 422.266 78.2906 425.915L84.1056 424.437ZM80.5855 414.94C79.3495 412.606 77.34 410.08 74.1901 410.08V416.08C73.9798 416.08 73.9533 415.975 74.1627 416.157C74.4089 416.372 74.803 416.841 75.2828 417.748L80.5855 414.94ZM109.609 410.68V407.68H106.684L106.61 410.604L109.609 410.68ZM114.985 410.68L117.984 410.612L117.918 407.68H114.985V410.68ZM116.329 470.104L113.33 470.172L113.403 473.402L116.619 473.09L116.329 470.104ZM136.105 468.184H139.105V464.879L135.815 465.198L136.105 468.184ZM136.105 475V478H139.105V475H136.105ZM107.977 475L104.978 474.924L104.9 478H107.977V475ZM109.609 413.68H114.985V407.68H109.609V413.68ZM111.986 410.748L113.33 470.172L119.328 470.036L117.984 410.612L111.986 410.748ZM116.619 473.09L136.395 471.17L135.815 465.198L116.039 467.118L116.619 473.09ZM133.105 468.184V475H139.105V468.184H133.105ZM136.105 472H107.977V478H136.105V472ZM110.976 475.076L112.608 410.756L106.61 410.604L104.978 474.924L110.976 475.076ZM147.296 410.68V407.68H144.372L144.297 410.604L147.296 410.68ZM152.672 410.68L155.672 410.612L155.605 407.68H152.672V410.68ZM154.016 470.104L151.017 470.172L151.09 473.402L154.306 473.09L154.016 470.104ZM173.792 468.184H176.792V464.879L173.502 465.198L173.792 468.184ZM173.792 475V478H176.792V475H173.792ZM145.664 475L142.665 474.924L142.587 478H145.664V475ZM147.296 413.68H152.672V407.68H147.296V413.68ZM149.673 410.748L151.017 470.172L157.016 470.036L155.672 410.612L149.673 410.748ZM154.306 473.09L174.082 471.17L173.502 465.198L153.726 467.118L154.306 473.09ZM170.792 468.184V475H176.792V468.184H170.792ZM173.792 472H145.664V478H173.792V472ZM148.663 475.076L150.295 410.756L144.297 410.604L142.665 474.924L148.663 475.076ZM201.803 469.048L204.35 470.632L201.803 469.048ZM205.547 459.64L202.653 458.847L202.649 458.863L202.645 458.879L205.547 459.64ZM208.043 446.2L205.066 445.823L205.064 445.84L205.062 445.856L208.043 446.2ZM208.043 421.336L210.933 420.533L210.933 420.533L208.043 421.336ZM201.611 413.656L200.821 416.55L200.837 416.555L200.853 416.559L201.611 413.656ZM192.395 413.656L191.637 410.753L191.621 410.757L191.605 410.762L192.395 413.656ZM188.651 416.056L186.415 414.056L186.415 414.056L188.651 416.056ZM185.963 446.2L182.982 446.54L182.984 446.561L182.987 446.581L185.963 446.2ZM188.459 459.64L185.554 460.39L185.561 460.418L185.569 460.445L188.459 459.64ZM192.203 469.048L189.624 470.581L189.639 470.607L189.655 470.632L192.203 469.048ZM182.507 462.136L179.739 463.293L179.746 463.31L179.753 463.328L182.507 462.136ZM178.187 447.544L175.237 448.093L175.241 448.113L175.245 448.132L178.187 447.544ZM178.283 419.416L175.484 418.335L175.484 418.335L178.283 419.416ZM182.699 412.984L184.563 415.334L184.587 415.315L184.611 415.295L182.699 412.984ZM189.131 410.008L189.674 412.958L189.704 412.953L189.733 412.947L189.131 410.008ZM204.875 410.008L204.257 412.944L204.3 412.953L204.345 412.961L204.875 410.008ZM211.403 412.984L209.49 415.295L209.514 415.315L209.538 415.334L211.403 412.984ZM215.723 419.416L212.903 420.441L212.913 420.469L212.924 420.497L215.723 419.416ZM215.723 447.544L212.78 446.962L212.777 446.976L212.774 446.989L215.723 447.544ZM211.403 462.136L208.649 460.944L208.642 460.962L208.635 460.979L211.403 462.136ZM204.971 472.504L202.797 470.436L202.784 470.45L202.77 470.465L204.971 472.504ZM197.003 475.6C200.291 475.6 202.68 473.319 204.35 470.632L199.255 467.464C197.981 469.513 197.171 469.6 197.003 469.6V475.6ZM204.35 470.632C206.035 467.923 207.379 464.478 208.448 460.401L202.645 458.879C201.666 462.61 200.515 465.437 199.255 467.464L204.35 470.632ZM208.44 460.433C209.576 456.29 210.433 451.656 211.023 446.544L205.062 445.856C204.5 450.728 203.693 455.054 202.653 458.847L208.44 460.433ZM211.019 446.577C211.675 441.391 212.003 436.081 212.003 430.648H206.003C206.003 435.839 205.69 440.897 205.066 445.823L211.019 446.577ZM212.003 430.648C212.003 426.621 211.677 423.211 210.933 420.533L205.152 422.139C205.688 424.069 206.003 426.867 206.003 430.648H212.003ZM210.933 420.533C210.223 417.976 209.191 415.737 207.686 414.056L203.215 418.056C203.886 418.807 204.582 420.088 205.152 422.139L210.933 420.533ZM207.686 414.056C206.235 412.433 204.453 411.297 202.368 410.753L200.853 416.559C201.713 416.783 202.49 417.247 203.215 418.056L207.686 414.056ZM202.4 410.762C200.702 410.299 198.897 410.08 197.003 410.08V416.08C198.437 416.08 199.704 416.245 200.821 416.55L202.4 410.762ZM197.003 410.08C195.16 410.08 193.369 410.301 191.637 410.753L193.152 416.559C194.364 416.243 195.645 416.08 197.003 416.08V410.08ZM191.605 410.762C189.575 411.316 187.842 412.461 186.415 414.056L190.886 418.056C191.636 417.219 192.399 416.764 193.184 416.55L191.605 410.762ZM186.415 414.056C184.91 415.737 183.878 417.976 183.168 420.533L188.949 422.139C189.519 420.088 190.215 418.807 190.886 418.056L186.415 414.056ZM183.168 420.533C182.424 423.211 182.099 426.621 182.099 430.648H188.099C188.099 426.867 188.413 424.069 188.949 422.139L183.168 420.533ZM182.099 430.648C182.099 436.069 182.393 441.366 182.982 446.54L188.943 445.86C188.381 440.922 188.099 435.851 188.099 430.648H182.099ZM182.987 446.581C183.639 451.671 184.492 456.277 185.554 460.39L191.363 458.89C190.377 455.067 189.566 450.713 188.938 445.819L182.987 446.581ZM185.569 460.445C186.698 464.497 188.033 467.906 189.624 470.581L194.781 467.515C193.556 465.454 192.395 462.591 191.349 458.835L185.569 460.445ZM189.655 470.632C191.325 473.319 193.715 475.6 197.003 475.6V469.6C196.835 469.6 196.024 469.513 194.75 467.464L189.655 470.632ZM197.003 473.44C195.227 473.44 193.309 472.645 191.208 470.436L186.861 474.572C189.752 477.611 193.146 479.44 197.003 479.44V473.44ZM191.208 470.436C189.015 468.13 187.014 464.998 185.26 460.944L179.753 463.328C181.711 467.85 184.063 471.63 186.861 474.572L191.208 470.436ZM185.275 460.979C183.572 456.906 182.185 452.237 181.128 446.956L175.245 448.132C176.365 453.731 177.857 458.79 179.739 463.293L185.275 460.979ZM181.136 446.995C180.147 441.677 179.651 436.229 179.651 430.648H173.651C173.651 436.587 174.179 442.403 175.237 448.093L181.136 446.995ZM179.651 430.648C179.651 426.165 180.179 422.833 181.081 420.497L175.484 418.335C174.211 421.631 173.651 425.787 173.651 430.648H179.651ZM181.081 420.497C182.028 418.045 183.226 416.395 184.563 415.334L180.834 410.634C178.459 412.517 176.713 415.155 175.484 418.335L181.081 420.497ZM184.611 415.295C186.062 414.094 187.732 413.316 189.674 412.958L188.587 407.058C185.666 407.596 183.047 408.802 180.786 410.673L184.611 415.295ZM189.733 412.947C192.016 412.479 194.437 412.24 197.003 412.24V406.24C194.064 406.24 191.237 406.513 188.528 407.069L189.733 412.947ZM197.003 412.24C199.638 412.24 202.053 412.48 204.257 412.944L205.493 407.072C202.833 406.512 199.999 406.24 197.003 406.24V412.24ZM204.345 412.961C206.36 413.323 208.053 414.106 209.49 415.295L213.315 410.673C211.04 408.79 208.381 407.589 205.405 407.055L204.345 412.961ZM209.538 415.334C210.858 416.381 212.019 418.01 212.903 420.441L218.542 418.391C217.378 415.19 215.659 412.531 213.267 410.634L209.538 415.334ZM212.924 420.497C213.827 422.833 214.355 426.165 214.355 430.648H220.355C220.355 425.787 219.795 421.631 218.521 418.335L212.924 420.497ZM214.355 430.648C214.355 436.218 213.829 441.655 212.78 446.962L218.666 448.126C219.793 442.425 220.355 436.598 220.355 430.648H214.355ZM212.774 446.989C211.784 452.249 210.403 456.894 208.649 460.944L214.156 463.328C216.115 458.802 217.613 453.719 218.671 448.099L212.774 446.989ZM208.635 460.979C206.946 465.021 204.981 468.14 202.797 470.436L207.144 474.572C209.952 471.62 212.276 467.827 214.171 463.293L208.635 460.979ZM202.77 470.465C200.759 472.635 198.853 473.44 197.003 473.44V479.44C200.912 479.44 204.319 477.621 207.171 474.543L202.77 470.465ZM241.061 415.864L244.06 415.937L244.133 412.966L241.163 412.866L241.061 415.864ZM224.069 415.288H221.069V418.188L223.968 418.286L224.069 415.288ZM224.069 410.68V407.68H221.069V410.68H224.069ZM263.717 410.68H266.717V407.68H263.717V410.68ZM263.717 416.536L263.633 419.535L266.717 419.622V416.536H263.717ZM246.725 416.056L246.81 413.057L243.654 412.968L243.726 416.124L246.725 416.056ZM248.069 475V478H251.139L251.069 474.932L248.069 475ZM239.621 475L236.622 474.927L236.547 478H239.621V475ZM241.163 412.866L224.171 412.29L223.968 418.286L240.96 418.862L241.163 412.866ZM227.069 415.288V410.68H221.069V415.288H227.069ZM224.069 413.68H263.717V407.68H224.069V413.68ZM260.717 410.68V416.536H266.717V410.68H260.717ZM263.802 413.537L246.81 413.057L246.641 419.055L263.633 419.535L263.802 413.537ZM243.726 416.124L245.07 475.068L251.069 474.932L249.725 415.988L243.726 416.124ZM248.069 472H239.621V478H248.069V472ZM242.62 475.073L244.06 415.937L238.062 415.791L236.622 474.927L242.62 475.073Z" fill="#F9F9F9"/>
</g>
<defs>
<filter id="filter0_d" x="0.976318" y="406.24" width="269.741" height="81.2" filterUnits="userSpaceOnUse" color-interpolation-filters="sRGB">
<feFlood flood-opacity="0" result="BackgroundImageFix"/>
<feColorMatrix in="SourceAlpha" type="matrix" values="0 0 0 0 0 0 0 0 0 0 0 0 0 0 0 0 0 0 127 0"/>
<feOffset dy="4"/>
<feGaussianBlur stdDeviation="2"/>
<feColorMatrix type="matrix" values="0 0 0 0 1 0 0 0 0 0.9875 0 0 0 0 0.9875 0 0 0 0.25 0"/>
<feBlend mode="normal" in2="BackgroundImageFix" result="effect1_dropShadow"/>
<feBlend mode="normal" in="SourceGraphic" in2="effect1_dropShadow" result="shape"/>
</filter>
<linearGradient id="paint0_linear" x1="132.5" y1="388" x2="132.5" y2="501" gradientUnits="userSpaceOnUse">
<stop stop-color="white"/>
<stop offset="1" stop-color="white" stop-opacity="0"/>
</linearGradient>
<linearGradient id="paint1_linear" x1="132.5" y1="388" x2="132.5" y2="501" gradientUnits="userSpaceOnUse">
<stop stop-color="#F2CBCB"/>
<stop offset="1" stop-color="#8EB2F9"/>
</linearGradient>
</defs>
</svg>
